<svg width="256" height="256" viewBox="0 0 256 256" xmlns="http://www.w3.org/2000/svg" role="img" aria-label="Film Orbit logo">
  <defs>
    <!-- Neon purple gradient -->
    <linearGradient id="purple" x1="0" y1="0" x2="1" y2="1">
      <stop offset="0%" stop-color="#A855F7"></stop>
      <stop offset="100%" stop-color="#7C3AED"></stop>
    </linearGradient>

    <!-- Glow filter -->
    <filter id="glow" x="-40%" y="-40%" width="180%" height="180%">
      <feGaussianBlur stdDeviation="4" result="blur"></feGaussianBlur>
      <feMerge>
        <feMergeNode in="blur"></feMergeNode>
        <feMergeNode in="SourceGraphic"></feMergeNode>
      </feMerge>
    </filter>
  </defs>

  <!-- Orbit ring with satellite -->
  <g transform="rotate(-18 128 128)" filter="url(#glow)">
    <ellipse cx="128" cy="128" rx="110" ry="42" fill="none" stroke="url(#purple)" stroke-width="6"></ellipse>
    <circle cx="238" cy="128" r="9" fill="url(#purple)"></circle>
  </g>

  <!-- Stars / sparkles -->
  <g fill="url(#purple)" opacity="0.7">
    <circle cx="60" cy="60" r="2"></circle>
    <circle cx="200" cy="50" r="1.8"></circle>
    <circle cx="220" cy="180" r="2.2"></circle>
    <circle cx="40" cy="170" r="1.5"></circle>
  </g>

  <!-- Clapperboard -->
  <g transform="translate(64,52)" stroke="url(#purple)" stroke-width="8" fill="none" filter="url(#glow)">
    <!-- Bottom rectangle -->
    <rect x="12" y="80" width="116" height="70" rx="6" ry="6"></rect>

    <!-- Top angled part -->
    <polygon points="12,80 128,80 116,28 0,28"></polygon>

    <!-- Stripes -->
    <line x1="16" y1="28" x2="34" y2="80"></line>
    <line x1="48" y1="28" x2="66" y2="80"></line>
    <line x1="80" y1="28" x2="98" y2="80"></line>
    <line x1="112" y1="28" x2="124" y2="80"></line>
  </g>
</svg>
